<?xml version="1.0" standalone="no"?>
<!DOCTYPE svg PUBLIC "-//W3C//DTD SVG 20010904//EN"
 "http://www.w3.org/TR/2001/REC-SVG-20010904/DTD/svg10.dtd">
<svg version="1.0" xmlns="http://www.w3.org/2000/svg"
 width="200.000000pt" height="200.000000pt" viewBox="0 0 200.000000 200.000000"
 preserveAspectRatio="xMidYMid meet">

<g transform="translate(0.000000,200.000000) scale(0.100000,-0.100000)"
fill="#000000" stroke="none">
<path d="M412 1899 c-140 -26 -271 -168 -302 -328 -15 -83 -12 -1029 4 -1167
21 -179 80 -274 206 -333 l55 -26 595 0 595 0 58 29 c31 16 79 53 106 81 56
59 80 126 100 276 14 110 15 1065 1 1140 -26 135 -110 247 -226 301 l-66 31
-541 2 c-298 1 -561 -2 -585 -6z m1157 -54 c72 -34 123 -76 160 -131 62 -94
62 -96 59 -722 l-3 -567 -30 -58 c-36 -73 -108 -139 -183 -169 -57 -23 -58
-23 -607 -23 l-550 0 -63 29 c-68 31 -137 98 -175 170 -22 41 -22 45 -22 636
l0 595 29 63 c36 77 114 152 189 181 50 19 75 20 597 20 l545 1 54 -25z
m-1222 -1697 c58 -23 60 -23 591 -26 460 -2 542 -1 595 13 77 20 136 54 193
112 49 51 53 50 25 -6 -26 -49 -81 -97 -151 -130 l-55 -26 -575 0 -575 0 -49
23 c-70 32 -114 68 -147 120 -16 25 -29 49 -29 52 0 3 27 -20 60 -51 38 -37
81 -66 117 -81z"/>
<path d="M429 1835 c-110 -35 -205 -137 -234 -252 -13 -52 -15 -140 -13 -601
l3 -539 35 -69 c40 -78 104 -134 179 -156 36 -10 163 -13 576 -13 l530 0 61
28 c73 34 135 94 166 162 23 50 23 51 26 588 3 607 2 618 -67 717 -61 89 -218
168 -278 141 -33 -15 -22 -27 37 -40 105 -23 190 -85 238 -176 l27 -50 3 -539
c3 -627 5 -614 -81 -701 -89 -88 -71 -86 -688 -83 -527 3 -535 3 -575 25 -48
26 -107 88 -131 140 -16 35 -18 86 -21 577 -3 597 -2 604 61 688 44 57 107 95
195 115 54 13 72 21 70 33 -4 20 -61 23 -119 5z"/>
<path d="M481 1763 c-19 -10 -48 -35 -65 -56 l-31 -39 -3 -401 c-2 -221 0
-417 3 -435 8 -45 68 -109 113 -122 23 -6 210 -10 476 -10 428 0 441 1 484 21
26 13 54 38 70 62 l27 41 3 411 3 411 -24 44 c-15 28 -36 51 -62 64 -39 20
-56 21 -500 24 -423 2 -463 1 -494 -15z m693 -53 c-17 -34 -7 -65 26 -75 48
-15 87 28 74 81 -6 22 -4 24 34 24 l40 0 -5 -40 c-7 -48 8 -70 48 -70 37 0 63
37 53 75 -6 25 -5 26 13 16 26 -13 52 -53 60 -91 l6 -30 -553 0 -553 0 6 36
c7 42 20 60 62 86 28 16 58 18 367 18 l336 0 -14 -30z m63 -10 c-4 -25 -13
-34 -26 -25 -8 4 -8 12 -1 26 14 25 31 25 27 -1z m173 1 c0 -11 -5 -23 -11
-27 -15 -9 -33 12 -26 30 9 23 37 20 37 -3z m108 -336 l2 -186 -47 6 c-27 4
-63 11 -82 15 -20 6 -41 5 -51 0 -15 -8 -18 -4 -24 28 -3 20 -6 72 -6 114 0
115 -18 148 -74 134 -28 -7 -38 -30 -66 -149 -22 -92 -38 -137 -50 -137 -10 0
-20 53 -20 109 0 66 -8 87 -37 100 -53 24 -75 -1 -112 -126 -12 -40 -25 -75
-30 -77 -5 -3 -12 41 -16 98 -8 115 -18 139 -59 139 -40 0 -51 -17 -81 -128
-42 -152 -49 -151 -55 9 -4 121 -7 139 -24 152 -52 38 -85 6 -109 -106 -10
-47 -24 -103 -30 -125 -12 -40 -12 -40 -69 -45 l-58 -5 0 185 0 185 547 -2
548 -2 3 -186z m-854 38 c3 -21 6 -79 6 -129 0 -122 11 -274 20 -274 4 0 13
27 20 60 12 59 33 100 44 89 6 -5 -44 -212 -63 -261 -6 -16 -15 -28 -20 -28
-15 0 -19 37 -26 210 -8 191 -9 201 -31 174 -14 -18 -15 -17 -11 11 4 31 27
151 33 173 7 24 22 11 28 -25z m603 -29 c5 -130 25 -359 33 -367 4 -5 15 23
25 62 16 64 37 102 51 88 3 -3 1 -14 -4 -24 -5 -10 -24 -72 -42 -138 -32 -115
-44 -145 -55 -134 -2 3 -9 68 -15 145 -15 204 -21 264 -29 259 -4 -2 -13 -29
-20 -60 -9 -42 -18 -58 -35 -64 -18 -7 -26 -29 -50 -127 -28 -118 -41 -151
-50 -123 -2 8 -12 82 -21 164 -21 183 -26 196 -55 133 -11 -27 -27 -48 -33
-48 -7 0 -18 -21 -24 -47 -48 -204 -74 -231 -85 -93 -15 172 -20 210 -29 210
-4 0 -15 -13 -24 -30 -9 -16 -19 -30 -24 -30 -10 0 2 69 22 125 8 22 17 57 21
78 4 22 13 37 21 37 12 0 15 -15 16 -62 1 -101 23 -271 36 -275 7 -3 16 18 24
51 7 35 18 56 28 59 11 3 26 36 45 101 37 124 65 127 66 6 0 -40 8 -103 25
-207 9 -49 20 -40 33 27 11 49 16 60 33 60 11 0 21 6 23 13 2 6 16 64 30 127
35 151 36 152 49 147 7 -2 13 -28 14 -63z m-777 -259 c16 -8 35 -13 42 -11 7
2 25 7 39 10 l26 6 6 -132 c7 -142 19 -178 60 -178 13 0 31 6 41 13 16 12 47
99 78 222 18 69 28 62 29 -21 2 -106 9 -136 38 -151 19 -9 31 -9 55 1 33 13
41 31 73 154 9 37 20 71 23 75 4 4 12 -44 19 -107 6 -63 14 -122 17 -130 8
-20 36 -28 68 -20 28 7 36 26 71 172 10 39 21 72 25 72 4 0 10 -37 14 -82 13
-160 17 -179 42 -190 42 -20 71 3 89 69 37 134 69 228 79 235 6 4 30 7 53 6
l43 -1 0 -129 c0 -140 -9 -176 -55 -218 l-27 -25 -456 -3 c-420 -2 -460 -1
-492 15 -58 30 -70 67 -70 226 0 131 1 137 20 137 12 0 34 -7 50 -15z"/>
<path d="M514 1685 c-9 -23 4 -47 23 -43 11 2 19 14 21 31 3 22 -1 27 -18 27
-11 0 -23 -7 -26 -15z"/>
<path d="M634 1685 c-8 -21 2 -45 19 -45 8 0 20 7 27 15 10 12 10 18 0 30 -7
8 -19 15 -27 15 -7 0 -16 -7 -19 -15z"/>
<path d="M428 613 c-43 -27 -62 -71 -56 -132 8 -87 74 -134 157 -111 98 26
126 156 51 232 -24 23 -37 28 -77 28 -27 0 -60 -8 -75 -17z m123 -42 c21 -22
29 -39 29 -66 0 -27 -8 -44 -29 -66 -36 -36 -70 -37 -110 -3 -66 55 -26 159
62 163 10 1 32 -12 48 -28z"/>
<path d="M1359 591 c-34 -34 -39 -44 -39 -86 0 -59 31 -112 76 -131 43 -18 58
-18 101 3 90 42 99 176 17 238 -10 8 -41 15 -68 15 -43 0 -53 -4 -87 -39z
m136 -14 c18 -15 28 -36 32 -64 5 -37 2 -45 -25 -73 -40 -39 -74 -39 -114 0
-27 28 -30 36 -25 73 10 77 79 110 132 64z"/>
<path d="M957 594 c-4 -4 -7 -47 -7 -96 0 -80 2 -89 18 -86 15 3 17 15 17 92
0 83 -8 109 -28 90z"/>
<path d="M801 546 c-17 -20 -10 -101 8 -101 18 0 33 51 25 88 -6 30 -16 34
-33 13z"/>
<path d="M1127 554 c-11 -11 -8 -104 3 -104 12 0 30 34 30 57 0 24 -23 57 -33
47z"/>
<path d="M724 526 c-9 -37 -1 -61 21 -61 22 0 30 24 21 61 -8 31 -34 31 -42 0z"/>
<path d="M1184 536 c-10 -27 1 -71 19 -74 14 -3 17 4 17 42 0 35 -4 46 -15 46
-9 0 -18 -6 -21 -14z"/>
</g>
</svg>
